<svg id="Layer_1" data-name="Layer 1" xmlns="http://www.w3.org/2000/svg" xmlns:xlink="http://www.w3.org/1999/xlink" viewBox="0 0 641.59 640.26"><defs><style>.cls-1{fill:url(#radial-gradient);}.cls-2{fill:#fff;}</style><radialGradient id="radial-gradient" cx="225.68" cy="678.55" r="646.8" gradientUnits="userSpaceOnUse"><stop offset="0" stop-color="#ffd776"/><stop offset="0.25" stop-color="#f3a554"/><stop offset="0.38" stop-color="#f15c3c"/><stop offset="0.7" stop-color="#c32f87"/><stop offset="0.95" stop-color="#6765ae"/><stop offset="0.99" stop-color="#5c6cb3"/></radialGradient></defs><path class="cls-1" d="M680.79,539.87c0,77.46-62.49,140.26-139.59,140.26H178.8c-77.1,0-139.59-62.8-139.59-140.26V180.13c0-77.46,62.49-140.26,139.59-140.26H541.2c77.1,0,139.59,62.8,139.59,140.26Z" transform="translate(-39.21 -39.87)"/><path class="cls-2" d="M456.57,601.12h-195c-74.63,0-135.69-61.06-135.69-135.69V257.59c0-74.63,61.06-135.69,135.69-135.69H456.57c74.63,0,135.69,61.06,135.69,135.69V465.43C592.26,540.06,531.2,601.12,456.57,601.12Zm0-35.85a100.24,100.24,0,0,0,99.84-99.84V257.59a100.24,100.24,0,0,0-99.84-99.83h-195a100.24,100.24,0,0,0-99.84,99.83V465.43a100.24,100.24,0,0,0,99.84,99.84Z" transform="translate(-39.21 -39.87)"/><path class="cls-2" d="M488.2,359.66A128.44,128.44,0,1,1,359.76,231.22,128.43,128.43,0,0,1,488.2,359.66Zm-129-84a84.11,84.11,0,1,0,84.1,84.1A84.1,84.1,0,0,0,359.15,275.66Z" transform="translate(-39.21 -39.87)"/><circle class="cls-2" cx="451.06" cy="189.36" r="30.41"/></svg>