<?xml version="1.0" standalone="no"?>
<!DOCTYPE svg PUBLIC "-//W3C//DTD SVG 20010904//EN"
 "http://www.w3.org/TR/2001/REC-SVG-20010904/DTD/svg10.dtd">
<svg version="1.0" xmlns="http://www.w3.org/2000/svg"
 width="2530.000000pt" height="2530.000000pt" viewBox="0 0 2530.000000 2530.000000"
 preserveAspectRatio="xMidYMid meet">
<metadata>
Created by potrace 1.11, written by Peter Selinger 2001-2013
</metadata>
<g transform="translate(0.000000,2530.000000) scale(0.100000,-0.100000)"
fill="#000000" stroke="none">
<path d="M12049 24926 c-2 -2 -56 -7 -119 -11 -63 -3 -131 -8 -150 -10 -19 -3
-66 -7 -105 -10 -38 -3 -81 -8 -95 -10 -14 -2 -50 -7 -80 -10 -30 -3 -66 -8
-80 -10 -14 -2 -72 -11 -130 -20 -387 -60 -769 -163 -1105 -300 -190 -77 -455
-209 -537 -266 -14 -11 -29 -19 -32 -19 -8 0 -217 -142 -271 -184 -190 -148
-367 -317 -498 -475 -113 -138 -115 -140 -196 -261 -126 -188 -215 -354 -301
-555 -44 -103 -132 -355 -124 -355 2 0 -2 -15 -9 -32 -8 -18 -17 -49 -20 -68
-7 -32 -9 -46 -22 -105 -22 -97 -38 -200 -52 -320 -10 -93 -10 -528 0 -635 36
-384 141 -759 304 -1085 197 -394 465 -730 851 -1067 42 -37 203 -155 277
-203 33 -21 71 -46 85 -55 14 -9 45 -28 70 -42 25 -14 79 -45 120 -68 150 -86
476 -236 700 -321 58 -22 114 -44 125 -49 212 -91 1050 -341 1359 -405 10 -3
33 -9 50 -14 17 -6 42 -13 56 -15 14 -3 52 -13 85 -22 33 -9 67 -17 75 -19 26
-5 491 -125 568 -146 40 -11 81 -22 90 -24 20 -5 196 -53 332 -90 52 -15 102
-28 110 -30 19 -5 195 -57 325 -97 93 -28 233 -78 280 -98 11 -5 67 -30 124
-55 492 -218 730 -478 820 -896 20 -92 26 -317 11 -399 -4 -25 -11 -67 -15
-94 -3 -27 -10 -57 -16 -68 -5 -10 -8 -18 -5 -18 6 0 -37 -128 -60 -180 -103
-237 -272 -453 -494 -634 -257 -210 -601 -356 -1005 -426 -33 -5 -70 -12 -82
-14 -12 -3 -53 -8 -90 -11 -37 -4 -77 -9 -88 -11 -122 -25 -758 -24 -905 1
-14 2 -59 9 -100 14 -41 6 -86 13 -100 16 -14 3 -52 10 -84 16 -219 40 -510
151 -738 281 -178 102 -440 335 -564 503 -32 44 -61 82 -64 85 -3 3 -31 46
-62 95 -120 191 -249 483 -321 725 -42 139 -57 194 -62 218 -2 13 -7 32 -10
42 -3 10 -8 29 -10 42 -3 13 -7 34 -10 48 -3 14 -8 36 -11 50 -3 14 -7 36 -10
50 -2 14 -7 38 -10 53 l-6 29 -71 -7 c-40 -4 -83 -8 -97 -10 -14 -2 -54 -6
-90 -10 -36 -3 -85 -8 -110 -11 -85 -9 -125 -13 -207 -19 -45 -3 -91 -8 -102
-10 -12 -2 -57 -7 -100 -10 -44 -3 -88 -7 -98 -9 -10 -2 -54 -7 -98 -10 -44
-4 -93 -9 -110 -11 -16 -2 -55 -6 -85 -9 -30 -3 -104 -10 -163 -16 -60 -6
-132 -13 -160 -15 -29 -3 -77 -7 -107 -10 -30 -3 -77 -8 -105 -10 -64 -7 -140
-15 -185 -20 -19 -2 -69 -7 -110 -10 -41 -4 -86 -8 -100 -10 -14 -2 -59 -6
-100 -10 -41 -3 -84 -7 -95 -10 -11 -2 -26 -4 -33 -4 -9 -1 -11 -12 -8 -38 3
-21 8 -63 11 -93 3 -30 8 -62 10 -70 3 -8 7 -35 10 -60 2 -25 7 -56 10 -70 3
-14 10 -52 15 -85 60 -362 196 -834 335 -1165 346 -822 874 -1436 1608 -1872
54 -32 362 -188 371 -188 3 0 29 -11 58 -24 70 -32 222 -91 317 -122 124 -42
234 -76 271 -84 19 -5 87 -22 150 -38 63 -16 165 -39 225 -52 61 -12 130 -26
155 -31 25 -5 63 -11 85 -14 22 -2 49 -7 60 -9 11 -2 43 -7 70 -10 28 -4 61
-9 75 -11 35 -5 115 -15 175 -20 28 -3 76 -8 108 -11 32 -3 75 -8 95 -10 280
-26 1148 -26 1432 1 19 2 73 6 120 10 47 3 92 8 100 10 8 2 51 7 95 11 44 3
82 7 85 9 3 2 30 6 60 10 30 3 84 11 120 16 36 6 74 12 85 14 70 10 181 32
320 62 606 133 1114 343 1550 642 61 41 115 80 122 86 7 5 18 15 25 20 409
316 742 734 983 1230 152 312 269 671 311 955 3 19 7 46 9 60 2 14 7 45 10 70
3 25 8 61 10 80 23 171 23 684 0 845 -2 17 -6 55 -10 85 -50 475 -206 965
-418 1320 -29 48 -155 239 -181 273 -482 635 -1045 1009 -2047 1360 -161 57
-516 172 -559 182 -13 3 -102 29 -275 80 -27 9 -59 17 -70 20 -32 7 -82 20
-201 53 -61 17 -123 33 -137 36 -15 2 -31 7 -37 11 -5 3 -22 8 -37 10 -16 3
-46 9 -68 15 -22 6 -47 12 -55 15 -17 4 -147 35 -170 40 -8 2 -98 24 -200 50
-102 25 -196 48 -210 51 -14 2 -39 9 -56 15 -17 5 -41 11 -53 14 -12 2 -56 14
-99 25 -42 12 -84 23 -93 25 -32 7 -307 87 -449 131 -928 291 -1299 530 -1450
936 -64 175 -65 426 -2 608 46 133 106 225 213 332 214 213 618 400 1019 472
137 25 210 36 275 41 28 3 82 8 120 12 154 14 707 7 803 -11 9 -2 42 -7 72
-10 99 -11 241 -39 347 -67 574 -151 923 -466 1142 -1028 33 -85 88 -254 95
-294 1 -7 5 -21 9 -32 3 -11 8 -31 11 -45 2 -14 14 -69 25 -124 12 -54 21
-100 21 -103 0 -2 55 -2 123 1 67 4 172 8 232 11 61 3 160 7 220 10 61 3 162
7 225 10 63 3 158 7 210 10 52 3 156 7 230 10 74 3 169 7 210 10 41 2 138 7
215 10 77 3 176 8 220 10 44 3 145 8 225 11 166 7 258 11 280 13 11 1 15 13
13 48 -2 59 -13 208 -18 248 -2 17 -7 59 -10 95 -4 36 -9 74 -11 85 -1 11 -6
40 -10 65 -3 25 -8 52 -9 60 -6 40 -19 106 -46 225 -89 395 -258 794 -472
1115 -44 66 -183 256 -197 270 -3 3 -32 37 -65 75 -173 202 -429 432 -637 571
-40 27 -75 52 -78 56 -3 4 -17 12 -30 18 -14 6 -45 23 -70 39 -116 75 -361
197 -530 262 -41 16 -84 34 -95 39 -23 10 -320 108 -350 115 -11 2 -81 20
-155 39 -74 19 -146 37 -160 40 -150 30 -352 67 -420 76 -47 6 -100 13 -117
16 -18 2 -48 6 -65 8 -18 3 -62 7 -98 11 -36 3 -83 8 -105 10 -22 2 -78 7
-125 10 -47 4 -103 9 -125 12 -48 6 -961 14 -966 9z"/>
<path d="M17739 22019 c-1 -2 -2 -502 -3 -1111 l-1 -1108 25 0 c156 -2 511
-11 570 -14 271 -17 274 -17 385 -32 22 -3 52 -7 67 -9 24 -4 108 -18 166 -30
78 -15 226 -80 309 -136 181 -122 278 -286 317 -534 8 -53 16 -109 21 -160 3
-27 7 -68 9 -90 7 -66 16 -304 21 -565 3 -135 7 -321 10 -415 3 -93 8 -251 10
-350 3 -99 8 -227 10 -285 3 -58 7 -179 10 -270 3 -91 8 -194 10 -230 2 -36 7
-119 10 -185 3 -66 8 -150 10 -187 3 -38 7 -101 10 -140 8 -123 16 -231 20
-268 2 -19 6 -64 10 -100 3 -36 8 -81 10 -100 3 -19 7 -53 10 -75 6 -54 17
-126 21 -150 3 -11 7 -35 10 -54 6 -37 6 -34 29 -146 22 -104 20 -98 45 -190
38 -146 71 -260 81 -280 6 -12 11 -27 13 -35 2 -16 22 -68 79 -215 92 -235
266 -538 406 -707 71 -84 297 -307 401 -393 115 -95 304 -237 423 -317 48 -32
87 -60 87 -62 0 -2 -35 -26 -77 -52 -403 -250 -727 -554 -954 -899 -239 -363
-418 -817 -503 -1280 -13 -71 -35 -203 -41 -245 -3 -25 -8 -56 -10 -70 -6 -39
-17 -132 -20 -165 -1 -16 -5 -61 -9 -100 -18 -196 -27 -338 -41 -655 -3 -74
-8 -171 -10 -215 -7 -155 -24 -579 -40 -990 -5 -138 -13 -455 -20 -765 -3
-118 -7 -226 -9 -240 -2 -14 -7 -59 -11 -100 -7 -90 -35 -220 -65 -310 -63
-190 -204 -346 -410 -454 -107 -56 -148 -71 -263 -97 -84 -18 -107 -22 -209
-34 -24 -3 -59 -7 -78 -10 -35 -4 -117 -11 -265 -20 -44 -3 -190 -7 -323 -9
-134 -3 -247 -7 -250 -11 -4 -4 -7 -506 -7 -1117 l0 -1110 545 5 c520 5 640 8
810 22 41 4 95 8 120 10 95 8 176 15 213 20 20 3 56 8 80 11 270 35 532 100
787 196 592 221 972 496 1237 893 183 274 307 602 377 990 22 128 30 175 42
275 2 19 6 53 9 75 2 22 7 67 10 100 3 33 8 80 10 105 3 25 7 72 10 105 21
308 22 334 30 525 13 291 15 405 19 949 5 531 14 1056 21 1156 2 28 6 102 10
166 6 115 8 133 19 259 14 146 45 322 87 485 16 66 32 127 34 135 6 26 76 223
93 265 9 22 42 92 74 155 186 376 449 638 765 763 115 46 345 104 478 122 22
2 71 9 109 14 38 6 72 9 75 9 3 -1 31 2 61 5 30 4 86 9 123 11 37 2 71 6 74
10 8 8 8 2215 0 2223 -4 3 -30 7 -59 8 -63 4 -253 23 -288 30 -13 3 -42 7 -65
10 -35 6 -204 40 -245 50 -195 50 -445 155 -543 229 -135 102 -201 165 -288
276 -82 104 -104 135 -126 180 -7 14 -27 50 -44 80 -99 176 -231 550 -254 720
-3 25 -8 52 -10 60 -2 8 -7 35 -10 60 -5 42 -8 66 -20 158 -19 157 -36 410
-50 752 -8 181 -15 634 -21 1205 -3 303 -7 582 -8 620 -11 227 -17 346 -21
395 -2 30 -7 84 -10 120 -19 244 -27 318 -51 490 -20 138 -33 211 -70 386 -2
12 -15 62 -30 110 -164 570 -468 1001 -950 1347 -29 20 -56 37 -62 37 -6 0
-12 4 -14 8 -3 8 -121 82 -131 82 -3 0 -31 15 -64 33 -184 104 -532 220 -813
271 -138 25 -143 26 -185 31 -22 3 -51 8 -65 10 -14 2 -50 7 -80 10 -30 3 -62
7 -70 9 -8 3 -53 7 -100 11 -47 4 -98 8 -114 10 -16 2 -84 7 -150 10 -67 4
-134 9 -151 12 -38 5 -1155 17 -1156 12z"/>
<path d="M6488 21724 c-2 -1 -76 -5 -165 -9 -89 -3 -170 -7 -180 -9 -10 -2
-61 -7 -113 -10 -52 -4 -129 -11 -170 -16 -41 -5 -97 -12 -125 -15 -65 -8
-260 -40 -352 -59 -119 -24 -380 -110 -558 -183 -688 -283 -1087 -660 -1338
-1268 -44 -106 -118 -346 -133 -435 -3 -14 -9 -41 -14 -60 -5 -19 -12 -50 -15
-67 -20 -120 -21 -131 -34 -223 -6 -41 -13 -102 -17 -135 -3 -33 -8 -67 -9
-76 -2 -8 -6 -55 -11 -105 -4 -49 -8 -98 -9 -109 -1 -18 -10 -135 -20 -280
-20 -282 -27 -585 -40 -1740 -6 -510 -9 -609 -30 -900 -12 -179 -44 -409 -80
-575 -2 -14 -7 -35 -9 -48 -15 -73 -74 -264 -114 -367 -166 -432 -443 -766
-767 -924 -86 -43 -194 -84 -245 -96 -8 -1 -35 -8 -60 -15 -25 -7 -54 -14 -65
-16 -11 -2 -42 -8 -70 -14 -75 -15 -95 -19 -140 -25 -22 -4 -51 -8 -65 -10
-35 -5 -244 -26 -305 -30 -27 -2 -55 -4 -61 -4 -12 -1 -16 -2219 -4 -2226 7
-5 41 -8 175 -20 39 -4 81 -8 95 -10 152 -22 188 -28 205 -32 11 -2 36 -7 55
-9 168 -25 472 -137 615 -226 122 -77 253 -197 342 -313 21 -27 41 -51 46 -53
4 -2 7 -7 7 -12 0 -5 17 -35 39 -67 120 -182 258 -529 317 -803 24 -109 49
-278 60 -399 2 -24 6 -65 8 -90 5 -47 13 -146 21 -261 3 -36 7 -128 10 -205 3
-77 8 -185 10 -240 3 -55 7 -320 10 -590 6 -580 14 -1088 20 -1200 8 -155 16
-301 20 -355 2 -30 6 -91 9 -135 3 -44 8 -98 11 -120 2 -22 9 -85 15 -140 19
-165 27 -232 36 -280 10 -52 14 -74 18 -109 3 -20 7 -40 10 -44 2 -4 7 -25 10
-47 25 -159 112 -417 206 -610 57 -118 168 -302 223 -371 229 -286 464 -490
755 -656 155 -88 446 -210 582 -244 8 -2 49 -12 90 -23 85 -23 292 -67 360
-76 25 -3 52 -8 60 -10 8 -2 40 -7 70 -10 30 -3 66 -8 80 -10 53 -9 269 -30
425 -41 55 -3 120 -8 145 -10 102 -9 1160 -16 1161 -8 0 5 1 507 2 1117 2 978
0 1107 -13 1108 -8 0 -116 2 -240 4 -253 4 -365 9 -605 31 -62 5 -225 31 -309
49 -51 10 -147 45 -200 72 -293 148 -443 356 -496 691 -24 147 -29 232 -34
577 -5 285 -10 492 -21 760 -3 66 -7 190 -10 275 -7 216 -18 494 -30 775 -6
140 -15 294 -20 348 -2 23 -6 78 -10 122 -3 44 -8 91 -10 105 -2 14 -6 57 -10
95 -13 141 -55 442 -75 535 -5 25 -11 59 -14 75 -2 17 -11 60 -20 98 -9 37
-18 79 -21 95 -9 54 -84 309 -118 403 -91 249 -204 477 -339 677 -138 206
-364 448 -573 615 -94 75 -311 226 -422 293 l-33 20 98 64 c53 36 101 70 105
77 4 7 13 13 18 13 11 0 272 196 321 241 14 13 64 58 110 99 289 260 493 559
672 988 60 143 156 438 172 528 3 16 10 47 16 69 11 44 16 64 23 110 3 17 10
53 15 80 11 58 17 94 25 150 3 22 8 58 12 80 3 22 7 49 8 60 34 278 52 506 70
905 3 63 7 156 10 205 16 335 22 474 30 683 19 506 26 734 30 1042 3 242 7
332 20 430 3 19 7 55 10 80 39 295 179 510 419 645 72 40 181 82 245 95 25 5
57 12 70 14 14 3 45 8 70 11 25 3 57 7 71 9 26 5 93 12 200 21 104 10 237 15
514 20 142 2 261 7 264 9 2 3 4 501 4 1108 l1 1103 -502 1 c-275 0 -502 0
-503 -2z"/>
<path d="M8479 12188 c-1 -17 -1 -11929 0 -11945 1 -10 249 -13 1204 -13
l1202 0 -1 2260 -1 2260 1021 1 c562 0 1075 2 1141 4 215 6 519 16 575 20 30
2 105 7 165 10 107 6 141 8 275 20 36 3 88 8 115 10 49 3 133 12 205 20 19 3
58 7 85 10 28 4 61 8 75 10 14 2 45 6 70 10 25 3 88 13 140 22 52 8 104 17
115 19 486 79 1145 404 1565 772 70 61 214 205 285 283 80 88 252 317 312 415
181 294 266 467 353 719 53 154 113 380 134 506 3 19 7 43 10 54 4 22 15 94
21 135 2 14 6 43 9 65 3 22 8 69 11 105 3 36 8 81 10 100 22 175 22 731 0 920
-2 19 -7 64 -10 100 -4 36 -8 76 -10 90 -2 14 -7 45 -10 70 -72 536 -257 1044
-528 1450 -356 535 -866 964 -1412 1190 -44 18 -94 39 -111 46 -30 13 -189 66
-210 70 -6 1 -36 9 -65 17 -95 28 -230 55 -374 76 -135 19 -182 24 -310 36
-33 3 -80 8 -105 10 -139 14 -392 30 -645 40 -82 3 -208 9 -280 12 -71 3
-1231 8 -2577 10 -2016 4 -2448 2 -2449 -9z m4486 -2022 c39 -2 133 -7 210
-11 77 -4 156 -8 175 -10 19 -2 74 -6 121 -10 48 -3 97 -8 110 -10 13 -2 47
-6 74 -10 246 -31 534 -130 720 -248 131 -82 308 -236 399 -347 153 -187 282
-475 312 -695 3 -22 7 -47 10 -55 16 -48 23 -352 11 -475 -63 -637 -465 -1145
-1072 -1355 -72 -26 -257 -69 -360 -85 -103 -16 -243 -32 -340 -40 -38 -3 -86
-8 -105 -10 -19 -2 -82 -7 -140 -10 -58 -3 -148 -8 -200 -11 -52 -3 -525 -8
-1051 -11 l-956 -5 0 1707 0 1707 1006 -6 c553 -3 1038 -8 1076 -10z"/>
</g>
</svg>
